<mxfile host="app.diagrams.net" modified="2023-04-18T10:18:49.269Z" agent="Mozilla/5.0 (Windows NT 10.0; Win64; x64) AppleWebKit/537.36 (KHTML, like Gecko) Chrome/112.0.0.0 Safari/537.36" etag="-7cmG9HCoQ2JIvPZ8B7N" version="21.1.5" type="github">
  <diagram name="Page-1" id="Mq6K6TAWMFtzzGSkO2i6">
    <mxGraphModel dx="1050" dy="541" grid="1" gridSize="10" guides="1" tooltips="1" connect="1" arrows="1" fold="1" page="1" pageScale="1" pageWidth="827" pageHeight="1169" math="0" shadow="0">
      <root>
        <mxCell id="0" />
        <mxCell id="1" parent="0" />
        <mxCell id="FF9HD_jjA8pSkZ4gVc-V-1" value="&lt;u&gt;Automaker&lt;/u&gt;&lt;br&gt;Automaker_ID&lt;br&gt;Automaker_first_name&lt;br&gt;Automaker_last_name&amp;nbsp;&amp;nbsp;&lt;br&gt;Automaker_phonenumber&lt;br&gt;Automaker_contactperson_first_name&lt;br&gt;Automaker_contactperson_last_name" style="whiteSpace=wrap;html=1;aspect=fixed;" vertex="1" parent="1">
          <mxGeometry x="170" y="30" width="150" height="150" as="geometry" />
        </mxCell>
        <mxCell id="FF9HD_jjA8pSkZ4gVc-V-2" value="&lt;font style=&quot;font-size: 12px;&quot;&gt;&lt;u&gt;Vehicle details&lt;/u&gt;&lt;br&gt;Vehicle_ID&lt;br&gt;Automaker_ID&lt;br&gt;Vehicle_model&lt;br&gt;Vehicle_year&lt;br&gt;Vehicle_color&lt;br&gt;Vehicle_buy_price&lt;br&gt;Vehicle_sell_price&lt;br&gt;Vehicle_creation_date&lt;br&gt;Vehicle_type&lt;/font&gt;" style="whiteSpace=wrap;html=1;aspect=fixed;" vertex="1" parent="1">
          <mxGeometry x="580" y="20" width="150" height="150" as="geometry" />
        </mxCell>
        <mxCell id="FF9HD_jjA8pSkZ4gVc-V-3" value="&lt;u&gt;Customer&lt;/u&gt;&lt;br&gt;Customer_ID&lt;br&gt;First_name&lt;br&gt;Last_name&lt;br&gt;Address" style="whiteSpace=wrap;html=1;aspect=fixed;" vertex="1" parent="1">
          <mxGeometry x="200" y="400" width="140" height="140" as="geometry" />
        </mxCell>
        <mxCell id="FF9HD_jjA8pSkZ4gVc-V-4" value="&lt;u&gt;Sales data&lt;/u&gt;&lt;br&gt;Sales_ID&lt;br&gt;Customer_ID&lt;br&gt;Salesman_ID&lt;br&gt;Vehicle_ID&lt;br&gt;Sales_sellprice&lt;br&gt;Sales_amount_sold&lt;br&gt;Sales_invoice_number&lt;br&gt;Sales_date" style="whiteSpace=wrap;html=1;aspect=fixed;" vertex="1" parent="1">
          <mxGeometry x="400" y="220" width="140" height="140" as="geometry" />
        </mxCell>
        <mxCell id="FF9HD_jjA8pSkZ4gVc-V-5" value="&lt;u style=&quot;border-color: var(--border-color);&quot;&gt;Salesman&lt;/u&gt;&lt;br style=&quot;border-color: var(--border-color);&quot;&gt;Salesman_ID&lt;br&gt;Customer_ID&lt;br style=&quot;border-color: var(--border-color);&quot;&gt;First_name&lt;br style=&quot;border-color: var(--border-color);&quot;&gt;Last_name&lt;br style=&quot;border-color: var(--border-color);&quot;&gt;Address" style="whiteSpace=wrap;html=1;aspect=fixed;" vertex="1" parent="1">
          <mxGeometry x="580" y="400" width="140" height="140" as="geometry" />
        </mxCell>
        <mxCell id="FF9HD_jjA8pSkZ4gVc-V-6" value="" style="edgeStyle=entityRelationEdgeStyle;fontSize=12;html=1;endArrow=ERoneToMany;rounded=0;entryX=-0.009;entryY=0.585;entryDx=0;entryDy=0;entryPerimeter=0;exitX=1;exitY=0.5;exitDx=0;exitDy=0;" edge="1" parent="1" source="FF9HD_jjA8pSkZ4gVc-V-1" target="FF9HD_jjA8pSkZ4gVc-V-2">
          <mxGeometry width="100" height="100" relative="1" as="geometry">
            <mxPoint x="180" y="118" as="sourcePoint" />
            <mxPoint x="270" y="150" as="targetPoint" />
          </mxGeometry>
        </mxCell>
        <mxCell id="FF9HD_jjA8pSkZ4gVc-V-7" value="" style="edgeStyle=entityRelationEdgeStyle;fontSize=12;html=1;endArrow=ERoneToMany;rounded=0;exitX=0;exitY=0.5;exitDx=0;exitDy=0;entryX=1;entryY=0.5;entryDx=0;entryDy=0;" edge="1" parent="1" source="FF9HD_jjA8pSkZ4gVc-V-5" target="FF9HD_jjA8pSkZ4gVc-V-3">
          <mxGeometry width="100" height="100" relative="1" as="geometry">
            <mxPoint x="710" y="320" as="sourcePoint" />
            <mxPoint x="750" y="340" as="targetPoint" />
          </mxGeometry>
        </mxCell>
        <mxCell id="FF9HD_jjA8pSkZ4gVc-V-10" value="" style="edgeStyle=entityRelationEdgeStyle;fontSize=12;html=1;endArrow=ERoneToMany;rounded=0;entryX=-0.014;entryY=0.436;entryDx=0;entryDy=0;exitX=0.5;exitY=0;exitDx=0;exitDy=0;entryPerimeter=0;" edge="1" parent="1" source="FF9HD_jjA8pSkZ4gVc-V-3" target="FF9HD_jjA8pSkZ4gVc-V-4">
          <mxGeometry width="100" height="100" relative="1" as="geometry">
            <mxPoint x="280" y="380" as="sourcePoint" />
            <mxPoint x="70" y="280" as="targetPoint" />
          </mxGeometry>
        </mxCell>
        <mxCell id="FF9HD_jjA8pSkZ4gVc-V-11" value="" style="edgeStyle=entityRelationEdgeStyle;fontSize=12;html=1;endArrow=ERoneToMany;rounded=0;exitX=0.5;exitY=0;exitDx=0;exitDy=0;entryX=1.003;entryY=0.424;entryDx=0;entryDy=0;entryPerimeter=0;" edge="1" parent="1" source="FF9HD_jjA8pSkZ4gVc-V-5" target="FF9HD_jjA8pSkZ4gVc-V-4">
          <mxGeometry width="100" height="100" relative="1" as="geometry">
            <mxPoint x="830" y="310" as="sourcePoint" />
            <mxPoint x="590" y="310" as="targetPoint" />
          </mxGeometry>
        </mxCell>
        <mxCell id="FF9HD_jjA8pSkZ4gVc-V-14" value="" style="edgeStyle=entityRelationEdgeStyle;fontSize=12;html=1;endArrow=ERzeroToMany;startArrow=ERzeroToOne;rounded=0;entryX=0.997;entryY=0.179;entryDx=0;entryDy=0;entryPerimeter=0;exitX=0.75;exitY=1;exitDx=0;exitDy=0;" edge="1" parent="1" source="FF9HD_jjA8pSkZ4gVc-V-2" target="FF9HD_jjA8pSkZ4gVc-V-4">
          <mxGeometry width="100" height="100" relative="1" as="geometry">
            <mxPoint x="650" y="170" as="sourcePoint" />
            <mxPoint x="480" y="210" as="targetPoint" />
          </mxGeometry>
        </mxCell>
      </root>
    </mxGraphModel>
  </diagram>
</mxfile>
